# xmcd CD database file
# Copyright (C) 1995-1998 Ti Kan
#
# Track frame offsets:
#	222
#	16337
#	34872
#	55617
#	70002
#	92097
#	111620
#	141490
#	152990
#	178802
#	200027
#	213025
#
# Disc length: 3185 seconds
#
# Revision: 1
# Processed by: cddbd v1.4b42PL1 Copyright (c) Steve Scherf et al.
# Submitted via: CDex 1.30Release
#
DISCID=af0c6f0c
DTITLE=Anthony Paule - Big Guitar
DYEAR=1900
DGENRE=Blues
TTITLE0=Big Guitar
TTITLE1=TV Mama
TTITLE2=Jungle Sauce
TTITLE3=I still love you baby
TTITLE4=Don't ask me how I feel
TTITLE5=Don't let the same dog bite you twice
TTITLE6=Drownin' in the mainstream
TTITLE7=What a price
TTITLE8=I want to change your mind
TTITLE9=Leavin on my mind
TTITLE10=Stratosphere boogie
TTITLE11=After hours with A.P.
EXTD=ID3G:   0
EXTT0=
EXTT1=
EXTT2=
EXTT3=
EXTT4=
EXTT5=
EXTT6=
EXTT7=
EXTT8=
EXTT9=
EXTT10=
EXTT11=
PLAYORDER=
